<svg xmlns="http://www.w3.org/2000/svg" viewBox="0 0 208 48" role="img" aria-label="Scorch">
  <defs>
    <linearGradient id="flameD" x1="0" y1="0" x2="0" y2="1">
      <stop offset="0" stop-color="#ffc25a"/>
      <stop offset="0.5" stop-color="#ff6a3d"/>
      <stop offset="1" stop-color="#e23f1f"/>
    </linearGradient>
    <linearGradient id="flameInnerD" x1="0" y1="0.15" x2="0" y2="1">
      <stop offset="0" stop-color="#fff0a8"/>
      <stop offset="1" stop-color="#ff8a45"/>
    </linearGradient>
  </defs>
  <g>
    <path fill="url(#flameD)" d="M20 2 C20 12 30 14 30 27 C30 36 25.5 44 20 46 C14.5 44 10 37 10 28 C10 22 13 20 15.5 15 C16 19 18 20.5 19 18 C19.8 16 20.2 9 20 2 Z"/>
    <path fill="url(#flameInnerD)" d="M20.5 23 C21.4 27.5 26 28.5 26 34 C26 38.7 23.2 42 20 42 C16.8 42 14 38.7 14 34.6 C14 30.7 16.4 29.2 18 25.8 C18.6 28.2 20 28 20.3 25.2 C20.4 24.3 20.45 23.6 20.5 23 Z"/>
  </g>
  <text x="48" y="33" font-family="-apple-system, BlinkMacSystemFont, 'Segoe UI', Helvetica, Arial, sans-serif" font-size="27" font-weight="800" letter-spacing="-0.5" fill="#f4f4f5">scorch</text>
</svg>
